<?xml version="1.0" encoding="UTF-8" standalone="no"?>
<!-- Created with Inkscape (http://www.inkscape.org/) -->

<svg
   width="32"
   height="32"
   viewBox="0 0 8.4666665 8.4666666"
   version="1.1"
   id="svg1"
   xml:space="preserve"
   inkscape:version="1.4 (e7c3feb1, 2024-10-09)"
   sodipodi:docname="filesearch.svg"
   xmlns:inkscape="http://www.inkscape.org/namespaces/inkscape"
   xmlns:sodipodi="http://sodipodi.sourceforge.net/DTD/sodipodi-0.dtd"
   xmlns="http://www.w3.org/2000/svg"
   xmlns:svg="http://www.w3.org/2000/svg"><sodipodi:namedview
     id="namedview1"
     pagecolor="#ffffff"
     bordercolor="#000000"
     borderopacity="0.25"
     inkscape:showpageshadow="2"
     inkscape:pageopacity="0.0"
     inkscape:pagecheckerboard="0"
     inkscape:deskcolor="#d1d1d1"
     inkscape:document-units="mm"
     inkscape:zoom="11.291611"
     inkscape:cx="19.704893"
     inkscape:cy="22.893101"
     inkscape:window-width="1568"
     inkscape:window-height="847"
     inkscape:window-x="1777"
     inkscape:window-y="101"
     inkscape:window-maximized="0"
     inkscape:current-layer="layer1" /><defs
     id="defs1" /><g
     inkscape:label="Layer 1"
     inkscape:groupmode="layer"
     id="layer1"><g
       style="clip-rule:evenodd;fill-rule:evenodd;image-rendering:optimizeQuality;shape-rendering:geometricPrecision;text-rendering:geometricPrecision;fill:#f9f9f9"
       id="g1"
       transform="matrix(0.01607834,0,0,0.01607834,0.75278007,0.18390952)"><path
         d="m 324.87,279.77 c 32.01,0 61.01,13.01 82.03,34.02 21.09,21 34.1,50.05 34.1,82.1 0,32.06 -13.01,61.11 -34.02,82.11 l -1.32,1.22 c -20.92,20.29 -49.41,32.8 -80.79,32.8 -32.06,0 -61.1,-13.01 -82.1,-34.02 -21.01,-21 -34.02,-50.05 -34.02,-82.11 0,-32.06 13.01,-61.1 34.02,-82.1 21,-21.01 50.04,-34.02 82.1,-34.02 z M 243.11,38.08 v 54.18 c 0.99,12.93 5.5,23.09 13.42,29.85 8.2,7.01 20.46,10.94 36.69,11.23 l 37.92,-0.04 z m 91.21,120.49 -41.3,-0.04 c -22.49,-0.35 -40.21,-6.4 -52.9,-17.24 -13.23,-11.31 -20.68,-27.35 -22.19,-47.23 l -0.11,-1.74 V 25.29 H 62.87 c -10.34,0 -19.75,4.23 -26.55,11.03 -6.8,6.8 -11.03,16.21 -11.03,26.55 v 336.49 c 0,10.3 4.25,19.71 11.06,26.52 6.8,6.8 16.22,11.05 26.52,11.05 h 119.41 c 2.54,8.79 5.87,17.25 9.92,25.29 H 62.87 c -17.28,0 -33.02,-7.08 -44.41,-18.46 C 7.08,432.37 0,416.64 0,399.36 V 62.87 C 0,45.61 7.08,29.89 18.45,18.51 29.89,7.08 45.61,0 62.87,0 h 173.88 c 4.11,0 7.76,1.96 10.07,5 l 109.39,118.34 c 2.24,2.43 3.34,5.49 3.34,8.55 l 0.03,119.72 c -8.18,-1.97 -16.62,-3.25 -25.26,-3.79 z m -229.76,54.49 c -6.98,0 -12.64,-5.66 -12.64,-12.64 0,-6.99 5.66,-12.65 12.64,-12.65 h 150.49 c 6.98,0 12.65,5.66 12.65,12.65 0,6.98 -5.67,12.64 -12.65,12.64 z m 0,72.3 c -6.98,0 -12.64,-5.66 -12.64,-12.65 0,-6.98 5.66,-12.64 12.64,-12.64 h 142.52 c 3.71,0 7.05,1.6 9.37,4.15 a 149.03,149.03 0 0 0 -30.54,21.14 z m 0,72.3 c -6.98,0 -12.64,-5.66 -12.64,-12.65 0,-6.98 5.66,-12.64 12.64,-12.64 h 86.2 c -3.82,8.05 -6.95,16.51 -9.29,25.29 z m 215.15,-22.88 a 55.2,55.2 0 0 1 21.15,4.22 c 6.81,2.8 12.94,6.93 18.03,12.03 5.11,5.09 9.23,11.2 12.04,17.97 2.7,6.56 4.21,13.74 4.21,21.24 0,5.46 -0.8,10.79 -2.31,15.83 a 54.357,54.357 0 0 1 -5.09,11.81 l 16.7,18.37 c 1.49,1.63 1.38,4.19 -0.25,5.69 l -15.35,14.02 a 4.045,4.045 0 0 1 -5.68,-0.24 l -15.7,-17.51 a 55.418,55.418 0 0 1 -11.7,5.09 l -0.15,0.04 a 55.542,55.542 0 0 1 -15.9,2.33 c -7.44,0 -14.62,-1.52 -21.17,-4.21 a 56.126,56.126 0 0 1 -18.03,-12.02 55.41,55.41 0 0 1 -12.04,-18 55.369,55.369 0 0 1 -4.21,-21.2 c 0,-7.45 1.51,-14.62 4.21,-21.18 a 55.884,55.884 0 0 1 12.03,-18.03 c 5.1,-5.1 11.2,-9.23 17.98,-12.03 a 55.264,55.264 0 0 1 21.23,-4.22 z m 24.48,30.96 a 35.057,35.057 0 0 0 -11.26,-7.55 l -0.19,-0.08 a 34.564,34.564 0 0 0 -13.03,-2.52 c -4.72,0 -9.2,0.94 -13.24,2.59 a 35.247,35.247 0 0 0 -11.26,7.56 34.544,34.544 0 0 0 -10.15,24.5 c 0,4.71 0.95,9.2 2.59,13.23 1.79,4.23 4.37,8.07 7.55,11.25 3.22,3.2 7.03,5.81 11.25,7.53 4.07,1.68 8.55,2.62 13.26,2.62 4.71,0 9.19,-0.94 13.23,-2.62 4.22,-1.73 8.06,-4.35 11.25,-7.53 3.18,-3.18 5.8,-7.02 7.53,-11.25 1.68,-4.04 2.63,-8.53 2.63,-13.23 0,-4.72 -0.95,-9.2 -2.63,-13.25 l -0.07,-0.2 c -1.74,-4.13 -4.3,-7.89 -7.46,-11.05 z"
         id="path1"
         style="fill:#f9f9f9" /></g></g></svg>
