<?xml version="1.0" encoding="UTF-8" standalone="no"?>
<!-- Created with Inkscape (http://www.inkscape.org/) -->

<svg
   width="32"
   height="32"
   viewBox="0 0 8.4666665 8.4666666"
   version="1.1"
   id="svg1"
   xml:space="preserve"
   inkscape:version="1.4 (e7c3feb1, 2024-10-09)"
   sodipodi:docname="workspace.svg"
   xmlns:inkscape="http://www.inkscape.org/namespaces/inkscape"
   xmlns:sodipodi="http://sodipodi.sourceforge.net/DTD/sodipodi-0.dtd"
   xmlns="http://www.w3.org/2000/svg"
   xmlns:svg="http://www.w3.org/2000/svg"><sodipodi:namedview
     id="namedview1"
     pagecolor="#ffffff"
     bordercolor="#000000"
     borderopacity="0.25"
     inkscape:showpageshadow="2"
     inkscape:pageopacity="0.0"
     inkscape:pagecheckerboard="0"
     inkscape:deskcolor="#d1d1d1"
     inkscape:document-units="mm"
     inkscape:zoom="12.750019"
     inkscape:cx="11.215669"
     inkscape:cy="20.156832"
     inkscape:window-width="1552"
     inkscape:window-height="832"
     inkscape:window-x="1687"
     inkscape:window-y="33"
     inkscape:window-maximized="0"
     inkscape:current-layer="layer1" /><defs
     id="defs1" /><g
     inkscape:label="Layer 1"
     inkscape:groupmode="layer"
     id="layer1"><path
       style="fill:#f9f9f9;stroke-width:0.0622408"
       d="m 0.14335297,6.8844842 c 0.005832,-0.3790089 0.006353,-0.3838954 0.052162,-0.4835037 C 0.25359888,6.2746639 0.36617803,6.1627901 0.4946038,6.1037631 0.58687202,6.0613543 0.61118792,6.057901 0.862025,6.0515856 1.0528316,6.0467866 1.1285295,6.0394266 1.1233574,6.0261963 1.1193521,6.0159514 0.88803144,5.6518629 0.60931061,5.2171106 0.33058962,4.7823585 0.08935085,4.4044205 0.07322434,4.3772485 L 0.04390354,4.3278446 0.58488337,3.4797485 1.125863,2.6316524 0.93393077,2.4380852 0.74199843,2.2445182 1.1698194,1.8164597 1.5976404,1.3884013 1.8489315,1.6393002 2.1002226,1.890199 V 1.6151788 c 0,-0.2409537 0.00439,-0.2867224 0.035347,-0.3694951 0.042625,-0.1139216 0.1469076,-0.2305086 0.2560628,-0.28627268 l 0.079118,-0.040419 2.797167,-0.00425 2.7971674,-0.00425 0.097022,0.0435404 C 8.2738462,1.0041779 8.3768823,1.1069707 8.4294755,1.2207703 l 0.035585,0.076998 v 2.0831788 2.0831877 l -0.039223,0.086788 c -0.048357,0.1069993 -0.1850484,0.2360127 -0.2936666,0.277172 -0.071275,0.027009 -0.1547447,0.03042 -0.8733827,0.035686 l -0.7945755,0.00582 8.72e-5,0.044284 c 9.34e-5,0.04933 0.059774,0.6798253 0.074726,0.7894559 l 0.00954,0.069989 H 6.7534117 6.958251 V 7.0203455 7.2673636 H 5.2867583 3.6152679 V 7.0203443 6.7733259 h 0.2058485 c 0.1132163,0 0.2059867,-0.00556 0.2061556,-0.012351 1.689e-4,-0.0068 0.018633,-0.1939095 0.04103,-0.4158141 C 4.090699,6.1232559 4.109088,5.925024 4.109165,5.9046449 L 4.1093045,5.867593 H 3.3712741 c -0.756047,0 -0.8779896,-0.00809 -0.9905753,-0.065691 C 2.2912765,5.7561469 2.1989053,5.6569855 2.151449,5.5557988 L 2.108456,5.4641288 2.100216,4.8499745 2.091976,4.2358203 2.01838,4.3108343 1.944784,4.3858483 1.7987839,4.241571 C 1.5110181,3.9572253 1.3895007,3.706388 1.3643669,3.3448451 l -0.00994,-0.1431374 -0.35924943,0.5629147 -0.35924959,0.5629148 0.036385,0.06011 c 0.0200119,0.033061 0.2661115,0.419491 0.54688882,0.8587345 l 0.5105045,0.7986243 0.436399,0.00598 0.436399,0.00598 0.1070415,0.051429 c 0.1666266,0.080057 0.2690331,0.1982311 0.3197356,0.368965 0.020246,0.068173 0.02609,0.1665078 0.02609,0.4389252 V 7.2673631 H 1.59641 0.13746119 Z M 2.5613231,6.6921629 c 0,-0.093166 -0.024746,-0.1269549 -0.1034529,-0.1412509 C 2.4287262,6.545632 2.0207246,6.543472 1.5512026,6.546142 L 0.69752625,6.551002 0.66605395,6.589879 C 0.64575415,6.614954 0.63458165,6.654416 0.63458165,6.7010373 V 6.773314 H 1.5979526 2.561324 Z m 3.4747239,0.042597 c 0,-0.043043 -0.06079,-0.6877909 -0.075162,-0.7971788 L 5.951695,5.8675921 H 5.2864956 4.6213014 l -0.00882,0.053521 c -0.012969,0.078698 -0.075013,0.7412323 -0.075013,0.8010193 v 0.051193 H 5.2867583 6.036047 Z M 7.9755929,5.1141864 7.9801613,4.879519 H 5.2872106 2.5942589 v 0.2388336 0.2388337 l 2.6883823,-0.00416 2.6883826,-0.00416 z M 7.9752267,2.8910218 7.971021,1.4130288 H 5.2867583 2.6024927 V 1.709451 2.0058729 l 0.1399772,0.011132 c 0.3253863,0.025862 0.5864349,0.1589106 0.8643263,0.4405146 L 3.7383015,2.5907817 3.1662802,3.1629783 2.5942589,3.7351748 V 4.0520947 4.3690145 H 5.2868464 7.9794337 Z M 2.4856363,3.1355031 3.0108364,2.6101107 2.9466407,2.5778306 C 2.7872521,2.4976838 2.5409695,2.4881357 2.3651848,2.555288 2.0207866,2.6868535 1.8107089,3.0375872 1.8681114,3.3851729 c 0.014691,0.088954 0.075749,0.2757225 0.09014,0.2757225 0.0012,0 0.2385256,-0.2364264 0.5273849,-0.5253923 z M 1.7380397,2.3704241 1.8080094,2.3068104 1.6991332,2.1979342 1.5902569,2.0890579 l -0.0745,0.073115 -0.0745,0.073115 0.1026901,0.1036112 c 0.056479,0.056985 0.1075121,0.1017041 0.1134056,0.099375 0.00589,-0.00234 0.042202,-0.032862 0.080686,-0.067851 z"
       id="path1" /></g></svg>
